<?xml version="1.0" encoding="UTF-8" standalone="yes"?>
<!DOCTYPE svg PUBLIC "-//W3C//DTD SVG 1.1//EN" "http://www.w3.org/Graphics/SVG/1.1/DTD/svg11.dtd">

<svg width="500" height="500" viewBox="0 0 500 500" xmlns="http://www.w3.org/2000/svg" xmlns:xlink="http://www.w3.org/1999/xlink" version="1.1" baseProfile="full">
    <g transform="scale(1.000000,-1.000000) translate(0,-500)">
        <path d="M 429.035034 332.587640 L 427.939041 341.006857 L 425.049605 347.333725 L 420.964541 351.867149 L 416.281662 354.906039 L 407.513719 357.695838 L 404.624284 358.044563 L 403.814743 358.088154 L 403.601461 358.093603 L 403.528291 358.094381 L 98.467647 358.094381 L 98.394477 358.093603 L 98.181195 358.088154 L 97.371655 358.044563 L 94.482219 357.695838 L 85.714276 354.906039 L 81.031397 351.867149 L 76.946333 347.333725 L 74.056897 341.006857 L 72.960904 332.587640 L 72.960904 307.080898 L 429.035034 307.080898 Z M 352.514805 409.107864 L 149.481134 409.107864 L 149.407964 409.107086 L 149.194681 409.101637 L 148.385141 409.058046 L 145.495705 408.709322 L 136.727762 405.919522 L 132.044883 402.880633 L 127.959819 398.347208 L 125.070383 392.020340 L 123.974390 383.601123 L 378.021548 383.601123 L 376.925555 392.020340 L 374.036119 398.347208 L 369.951055 402.880633 L 365.268176 405.919522 L 356.500233 408.709322 L 353.610797 409.058046 L 352.801257 409.101637 L 352.587975 409.107086 L 352.514805 409.107864 Z M 479.028266 307.080898 L 470.770449 315.928549 L 466.529948 320.471938 L 465.497721 321.577894 L 464.967658 322.145817 L 464.838630 322.284062 L 464.772372 322.355052 L 464.744474 322.384943 L 464.744474 281.574157 L 37.251464 281.574157 L 37.251464 322.384943 L 37.221573 322.355052 L 37.150583 322.284062 L 37.012338 322.145817 L 36.444414 321.577894 L 35.338458 320.471938 L 30.795068 315.928549 L 21.947413 307.080898 L 12.031667 297.101383 L 4.602828 287.695769 L 2.239468 282.072328 L 1.000000 275.229348 L 1.051810 266.712490 L 2.562288 256.067415 L 22.840153 138.226269 L 42.352813 26.506742 L 44.839719 18.087524 L 48.857030 11.760657 L 53.830845 7.227232 L 59.187262 4.188343 L 68.752291 1.398543 L 71.813101 1.049818 L 72.661997 1.006227 L 72.884683 1.000778 L 72.960904 1.000000 L 429.035034 1.000000 L 429.108359 1.000778 L 429.322732 1.006227 L 430.140990 1.049818 L 433.100171 1.398543 L 442.426074 4.188343 L 447.716730 7.227232 L 452.708480 11.760657 L 456.863289 18.087524 L 459.643125 26.506742 L 499.433660 256.067415 L 500.942141 266.712490 L 500.980000 275.229348 L 499.702670 282.072328 L 497.265581 287.695769 L 493.824165 292.554008 L 489.533853 297.101383 L 479.028266 307.080898 Z M 352.514805 169.344494 L 352.514026 169.271324 L 352.508577 169.058041 L 352.464987 168.248501 L 352.116262 165.359066 L 349.326462 156.591123 L 346.287572 151.908245 L 341.754147 147.823181 L 335.427279 144.933745 L 327.008061 143.837753 L 174.987877 143.837753 L 166.568659 144.933745 L 160.241791 147.823181 L 155.708366 151.908245 L 152.669476 156.591123 L 149.879676 165.359066 L 149.530951 168.248501 L 149.487361 169.058041 L 149.481912 169.271324 L 149.481134 169.344494 L 149.481134 220.357977 L 185.190574 220.357977 L 185.190574 179.547191 L 316.805364 179.547191 L 316.805364 220.357977 L 352.514805 220.357977 Z" transform="scale(1.000000,1.000000) translate(-0.990000,44.946075)" fill="#2a58ae" opacity="1.000000"></path>
    </g>
</svg>